<svg xmlns="http://www.w3.org/2000/svg" xml:space="preserve" width="405.954" height="405.954" viewBox="0 0 107.409 107.409">
  <path d="M-318.705-165.75h67.58a17.32 17.32 0 0 1 17.357 17.357v67.58a17.32 17.32 0 0 1-17.357 17.357h-67.58a17.32 17.32 0 0 1-17.357-17.358v-67.579a17.32 17.32 0 0 1 17.357-17.357" style="color:#000;fill:#0d9488;stroke-linecap:round;stroke-linejoin:round;-inkscape-stroke:none;paint-order:markers fill stroke" transform="translate(338.62 168.308)"/>
  <path d="M-318.705-168.307c-10.989 0-19.914 8.926-19.914 19.914v67.579c0 10.988 8.925 19.916 19.914 19.916h67.58c10.988 0 19.914-8.928 19.914-19.916v-67.579c0-10.988-8.926-19.914-19.914-19.914zm0 5.114h67.58c8.243 0 14.8 6.557 14.8 14.8v67.579c0 8.243-6.557 14.8-14.8 14.8h-67.58c-8.243 0-14.799-6.557-14.799-14.8v-67.579c0-8.243 6.556-14.8 14.799-14.8" style="color:#000;fill:#0d9488;stroke-linecap:round;stroke-linejoin:round;-inkscape-stroke:none;paint-order:markers fill stroke" transform="translate(338.62 168.308)"/>
  <path d="M-304.14-88.717c-.193-.037-1.876-1.768-3.742-3.847l-3.391-3.779-2.933-.007c-2.26-.006-3.035-.084-3.379-.343-.412-.312-.454-.67-.557-4.732l-.112-4.395h-1.56l-.056 5.686c-.067 6.817.088 6.467-2.852 6.467-1.738 0-1.884-.037-2.317-.587-.445-.566-.462-.845-.462-7.47v-6.884h-.99c-1.13 0-1.901-.246-2.432-.778-.33-.33-.37-1.223-.37-8.391v-8.022l.548-.548c.536-.536.62-.547 4.194-.547 2.796 0 3.748.074 4.08.316.404.295.44.703.545 6.077l.111 5.76h1.561l.112-4.237c.07-2.653.21-4.403.374-4.683.243-.412.539-.45 3.902-.516l3.64-.07 2.342-3.588c1.288-1.974 2.657-3.925 3.044-4.335l.702-.745h10.658l.052-.769.051-.769-5.13-.067c-4.996-.066-5.142-.08-5.636-.576-.452-.452-.508-.725-.508-2.485 0-3.255-2.043-2.918 17.596-2.91 14.568.007 16.805.052 17.192.344.364.276.459.657.525 2.119.092 2.029-.179 2.928-.996 3.3-.356.162-2.256.252-5.337.252h-4.784v1.538l5.185.067 5.185.067 2.23 1.875a208 208 0 0 1 3.067 2.62l.837.746h3.332c3.2 0 3.356.021 3.957.538.605.52.629.619.702 3.01l.075 2.473h3.083v-1.522c0-1.293.076-1.594.505-1.997.464-.436.773-.477 3.864-.513 1.973-.022 3.537.057 3.788.193.236.127 1.256 1.08 2.268 2.12l1.84 1.887v24.003l-2.203 2.203-2.202 2.203-3.505-.072c-3.372-.07-3.52-.092-3.93-.599-.289-.357-.425-.876-.425-1.616v-1.09h-2.732l-2.732.001-2.632 3.55c-1.447 1.951-2.764 3.658-2.926 3.793-.207.172-6.158.26-20.13.296-10.91.029-19.994.022-20.186-.015m41.492-6.935c3.094-4.17 2.394-3.813 7.486-3.813 3.992 0 4.349.033 4.883.453.465.366.589.676.643 1.617l.067 1.163 1.62.066 1.621.066 1.334-1.175 1.335-1.174v-21.659l-1.171-1.15c-1.152-1.13-1.194-1.15-2.62-1.188-2.403-.065-2.23-.184-2.23 1.53 0 1.221-.09 1.616-.455 2.008-.433.465-.633.488-4.237.488-3.485 0-3.818-.035-4.228-.446-.25-.25-.455-.764-.465-1.171-.01-.399-.035-1.528-.056-2.509l-.037-1.784-2.928-.062-2.928-.062-1.644-1.396c-.903-.768-2.322-1.97-3.151-2.67l-1.509-1.273h-15.71c-12.288 0-15.763.06-15.955.278-.136.154-1.29 1.875-2.567 3.825-3.278 5.01-2.698 4.594-6.387 4.594h-3.083v21.631h4.97l1.028 1.06c.97.997 3.53 3.83 5.14 5.685l.725.835 18.766.057 18.766.057.446-.535c.245-.295 1.384-1.8 2.53-3.346z" style="color:#000;fill:#f59e0b;stroke-linecap:round;stroke-linejoin:round;-inkscape-stroke:none" transform="translate(338.62 168.308)"/>
  <path d="M-287.055-140.773c-9.818-.004-14.188-.1-16.209.234-.505.083-.87.193-1.146.363-.277.17-.454.421-.527.692-.147.54.004 1.12.004 1.904 0 .883.01 1.398.09 1.789s.257.654.5.896c.127.129.266.257.47.348s.456.143.832.182c.752.076 2.033.096 4.531.129l4.83.062-.03.47-.036.505h-10.392a.28.28 0 0 0-.206.09l-.703.744c-.232.246-.655.824-1.209 1.613s-1.22 1.772-1.865 2.762l-2.26 3.463-3.49.066c-1.683.032-2.594.057-3.152.13-.28.038-.479.087-.643.177a.93.93 0 0 0-.348.35c-.098.166-.113.321-.152.577q-.059.384-.107.995a64 64 0 0 0-.153 3.248l-.105 3.96h-1.006l-.105-5.482c-.052-2.688-.086-4.13-.16-4.963-.038-.416-.084-.682-.163-.89a1 1 0 0 0-.338-.448c-.259-.19-.616-.252-1.261-.302s-1.586-.069-2.987-.069c-1.787 0-2.698 0-3.273.074-.575.075-.848.284-1.121.557l-.55.547a.28.28 0 0 0-.081.201v8.022c0 3.584.009 5.6.06 6.773.026.587.061.961.118 1.233.056.271.147.46.273.585.597.598 1.463.862 2.635.862h.705v6.6c0 3.312.003 5.036.064 6.025.03.494.075.808.15 1.054.076.247.192.417.31.567.224.285.452.506.822.6s.845.095 1.716.095c.73 0 1.274.027 1.729-.056.455-.084.836-.338 1.035-.79.399-.904.34-2.496.373-5.902l.053-5.406h1.002l.105 4.119c.052 2.032.086 3.135.164 3.799.04.332.089.559.172.744.084.185.212.316.334.408.243.183.574.268 1.113.322.54.055 1.302.076 2.436.079l2.807.007 3.306 3.684a97 97 0 0 0 2.506 2.7c.341.35.63.636.85.841q.165.155.281.248c.039.031.073.057.11.08.036.024.06.05.154.068.056.011.057.007.084.008q.038.002.1.002.123.004.341.008c.29.004.702.005 1.227.008 1.05.005 2.545.01 4.375.012 3.659.002 8.658-.004 14.113-.018 6.986-.018 11.968-.05 15.23-.098 1.632-.024 2.833-.052 3.643-.086.405-.016.711-.033.93-.052.109-.01.195-.021.267-.033a1 1 0 0 0 .104-.024c.034-.01.067-.01.136-.068.062-.051.09-.09.147-.157a11 11 0 0 0 .215-.26c.17-.211.396-.5.662-.845.532-.69 1.224-1.605 1.95-2.582l2.546-3.434 2.59-.002h2.447v.807c0 .775.142 1.367.488 1.795.214.265.484.48 1.034.564s1.424.104 3.11.139l3.505.072a.28.28 0 0 0 .207-.084l2.203-2.2 2.203-2.204a.28.28 0 0 0 .082-.201v-24.002a.28.28 0 0 0-.08-.2l-1.84-1.886a45 45 0 0 0-1.433-1.412 17 17 0 0 0-.542-.486c-.15-.128-.247-.212-.36-.274-.162-.087-.299-.095-.522-.123s-.51-.05-.848-.066a43 43 0 0 0-2.557-.037c-1.546.017-2.396.035-2.95.109-.556.074-.854.244-1.106.48-.234.22-.41.465-.494.801s-.1.75-.1 1.403v1.238h-2.523l-.069-2.197c-.036-1.197-.055-1.821-.158-2.264s-.333-.689-.64-.953c-.309-.265-.598-.454-1.151-.53-.553-.075-1.392-.078-2.992-.078h-3.225l-.756-.672a203 203 0 0 0-3.072-2.626l-2.23-1.875a.3.3 0 0 0-.18-.067l-5.184-.066-4.906-.065v-.974h4.502c1.543 0 2.79-.022 3.703-.065q.684-.031 1.113-.08c.287-.032.47-.057.637-.133.476-.217.819-.624.994-1.205.175-.58.215-1.336.168-2.365-.033-.736-.07-1.207-.158-1.56-.088-.354-.255-.603-.479-.772-.198-.15-.44-.186-.947-.232s-1.279-.08-2.496-.104c-2.434-.048-6.636-.061-13.92-.064m0 .566c7.284.003 11.486.016 13.909.064 1.211.025 1.98.058 2.457.102s.66.125.654.121c.141.107.204.184.271.455.068.272.11.723.143 1.45.045 1-.003 1.706-.145 2.175-.141.47-.344.698-.685.854a3 3 0 0 1-.465.084c-.266.03-.63.057-1.078.078-.897.042-2.138.064-3.676.064h-4.785a.284.284 0 0 0-.283.283v1.54a.284.284 0 0 0 .279.283l5.186.066 5.084.066 2.152 1.81a208 208 0 0 1 3.06 2.616l.836.744a.28.28 0 0 0 .19.073h3.332c1.6 0 2.438.008 2.914.072.475.065.567.145.86.396.296.256.378.318.456.653.078.334.108.957.145 2.152l.076 2.473a.284.284 0 0 0 .283.275h3.082a.284.284 0 0 0 .283-.285v-1.522c0-.64.024-1.023.084-1.261s.138-.344.333-.528c.212-.2.302-.267.79-.332.49-.064 1.339-.085 2.883-.103a43 43 0 0 1 2.522.035c.33.017.607.04.808.065.202.024.356.077.32.058.005.002.123.086.262.205.14.12.319.28.522.471.407.38.913.874 1.416 1.39l1.76 1.807v23.77l-2.121 2.119-2.116 2.117-3.384-.068c-1.686-.035-2.57-.062-3.04-.133s-.48-.12-.675-.361c-.233-.288-.363-.732-.363-1.438v-1.09a.284.284 0 0 0-.284-.285l-2.732.002h-2.73a.28.28 0 0 0-.23.115l-2.63 3.55c-.723.974-1.415 1.888-1.943 2.573-.265.343-.488.63-.655.836a11 11 0 0 1-.203.246l-.052.059a3 3 0 0 1-.223.025q-.302.029-.902.053c-.8.033-1.999.06-3.627.084-3.258.048-8.24.08-15.225.098-5.455.014-10.453.02-14.111.017a921 921 0 0 1-4.371-.01 169 169 0 0 1-1.557-.015c-.03 0-.048-.003-.066-.004-.012-.009-.023-.014-.041-.03a5 5 0 0 1-.249-.22 26 26 0 0 1-.83-.824 96 96 0 0 1-2.49-2.682l-3.392-3.78a.28.28 0 0 0-.211-.093l-2.932-.006c-1.127-.003-1.882-.025-2.38-.076-.5-.05-.728-.135-.829-.211a.4.4 0 0 1-.158-.19c-.044-.096-.09-.271-.125-.576-.072-.608-.11-1.715-.162-3.746l-.112-4.396a.284.284 0 0 0-.283-.276h-1.561a.284.284 0 0 0-.285.282l-.054 5.685c-.033 3.41-.049 5.053-.324 5.678-.138.313-.274.397-.62.46-.345.065-.884.048-1.625.048-.867 0-1.332-.016-1.578-.078-.246-.063-.306-.135-.515-.4a1 1 0 0 1-.211-.384c-.053-.172-.098-.447-.127-.921-.059-.95-.063-2.678-.063-5.99v-6.883a.284.284 0 0 0-.285-.286h-.988c-1.09 0-1.767-.228-2.233-.693-.039-.04-.075-.086-.119-.299s-.08-.57-.105-1.144c-.05-1.148-.06-3.165-.06-6.748v-7.905l.462-.465c.264-.263.3-.33.795-.394.495-.065 1.412-.07 3.2-.07 1.395 0 2.328.019 2.94.066.614.048.899.142.971.195.078.057.098.071.143.19s.092.348.127.742c.07.789.106 2.235.158 4.922l.112 5.762a.284.284 0 0 0 .285.277h1.56a.284.284 0 0 0 .283-.275l.112-4.239c.035-1.323.088-2.42.152-3.217.032-.398.066-.719.102-.953.035-.232.097-.4.082-.375v-.002c.048-.081.066-.103.13-.138.065-.036.198-.08.444-.112.491-.065 1.409-.092 3.09-.125l3.638-.07a.28.28 0 0 0 .233-.129l2.342-3.588c.642-.984 1.306-1.964 1.855-2.746.55-.782 1.004-1.385 1.158-1.549l.617-.656h10.536a.284.284 0 0 0 .283-.266l.053-.767.05-.77a.284.284 0 0 0-.279-.302l-5.129-.069c-2.498-.033-3.788-.054-4.482-.125-.347-.035-.538-.082-.657-.135-.118-.052-.183-.113-.302-.232-.21-.21-.285-.309-.346-.607-.061-.299-.078-.8-.078-1.676 0-.844-.106-1.445-.022-1.756.043-.156.102-.25.276-.358s.474-.207.941-.285c1.868-.309 6.296-.232 16.117-.228m.028 10.129c-6.145 0-10.087.016-12.52.058a59 59 0 0 0-2.61.086 7 7 0 0 0-.636.065 1.4 1.4 0 0 0-.201.045c-.06.019-.12.029-.201.12-.076.087-.153.202-.301.417a86 86 0 0 0-.578.853 279 279 0 0 0-1.713 2.588c-1.641 2.509-2.335 3.646-2.969 4.102-.317.228-.621.314-1.11.351-.487.038-1.144.012-2.071.012h-3.082a.284.284 0 0 0-.286.285v21.631a.284.284 0 0 0 .286.283h4.849l.945.975c.957.985 3.523 3.822 5.13 5.672l.724.836a.28.28 0 0 0 .213.097l18.765.057 18.768.057a.28.28 0 0 0 .219-.102l.445-.535c.274-.328 1.393-1.81 2.541-3.357 1.55-2.09 2.149-3.007 2.895-3.387s1.81-.313 4.363-.313c1.995 0 3.082.01 3.71.069.63.058.751.13.997.324.212.167.313.284.389.475.075.19.12.475.146.935l.069 1.164a.284.284 0 0 0 .271.268l1.621.064 1.62.067a.28.28 0 0 0 .198-.07l1.334-1.177 1.334-1.173a.28.28 0 0 0 .098-.213v-21.658a.28.28 0 0 0-.086-.204l-1.17-1.15c-.576-.566-.89-.878-1.289-1.059s-.809-.191-1.523-.21c-.599-.017-1.037-.037-1.375-.03s-.592.029-.809.178-.302.406-.326.668-.012.574-.012.998c0 .603-.023.992-.082 1.252-.058.26-.136.393-.295.562-.203.219-.236.27-.755.33-.52.06-1.475.069-3.276.069-1.741 0-2.696-.012-3.236-.068s-.61-.114-.791-.295c-.168-.168-.373-.66-.381-.979-.01-.397-.036-1.525-.057-2.506l-.037-1.785a.284.284 0 0 0-.277-.277l-2.928-.063-2.828-.06-1.566-1.33c-.905-.769-2.323-1.97-3.153-2.67l-1.507-1.274a.3.3 0 0 0-.184-.068zm0 .568h15.605l1.43 1.207c.829.7 2.247 1.9 3.15 2.668l1.645 1.397a.3.3 0 0 0 .178.068l2.927.063 2.657.054.03 1.514c.021.982.045 2.11.055 2.51.013.495.216 1.03.55 1.363.229.23.532.396 1.132.459s1.552.07 3.295.07c1.802 0 2.752-.002 3.342-.07s.873-.261 1.103-.508a1.73 1.73 0 0 0 .434-.824c.077-.34.098-.76.098-1.377 0-.433-.01-.749.01-.945.018-.197.04-.225.08-.252.04-.028.195-.072.5-.078s.746.013 1.35.029c.711.02 1.034.037 1.302.158.268.122.55.385 1.125.95l1.086 1.066v21.41l-1.238 1.09-1.248 1.1-1.508-.061-1.363-.055-.053-.908c-.028-.48-.07-.82-.186-1.111s-.31-.512-.564-.711c-.288-.227-.614-.38-1.295-.444-.681-.063-1.767-.07-3.764-.07-2.54 0-3.67-.111-4.62.373-.952.484-1.552 1.475-3.095 3.555-1.145 1.544-2.302 3.071-2.52 3.332l-.36.433-18.633-.056-18.637-.057-.64-.738c-1.614-1.86-4.169-4.686-5.151-5.697l-1.03-1.059a.28.28 0 0 0-.202-.086h-4.686v-21.064h2.799c.917 0 1.572.027 2.115-.014s.99-.163 1.399-.457c.818-.589 1.474-1.75 3.11-4.252.638-.974 1.246-1.89 1.71-2.582.232-.346.428-.636.574-.848.13-.19.215-.302.23-.324a1 1 0 0 1 .098-.02q.181-.03.582-.058c.536-.036 1.37-.063 2.582-.084 2.425-.043 6.366-.059 12.51-.059" style="color:#000;fill:#f59e0b;stroke-linecap:round;stroke-linejoin:round;-inkscape-stroke:none" transform="translate(338.62 168.308)"/>
  <path d="m-299.847-92.218-3.197-.03-.944-1.087c-1.422-1.637-4.106-4.585-5.074-5.574l-.858-.876h-4.73v-21.013l2.787-.033c3.114-.037 3.109-.036 3.904-.831.229-.228 1.487-2.035 2.795-4.014l2.38-3.6 1.208-.067c.665-.037 7.707-.095 15.65-.13l14.443-.064 3.186 2.715 3.185 2.715 1.39.002c.765.001 2.044.034 2.841.072l1.45.07v1.89c0 2.194.106 2.832.552 3.34.49.557.833.606 4.334.617 3.495.01 3.996-.037 4.463-.43.55-.464.663-.812.718-2.23.06-1.529-.029-1.454 1.589-1.359 1.704.1 1.624.068 2.735 1.13l1.008.963v21.489l-1.184 1.046-1.183 1.046-1.39-.023c-.764-.012-1.403-.035-1.418-.05-.016-.016-.069-.432-.119-.924-.099-.976-.287-1.447-.71-1.78-.596-.468-.852-.494-5.04-.494-3.93 0-3.99.004-4.523.245-.782.354-1.352.997-3.858 4.348l-2.244 3-15.475-.025c-8.511-.013-16.913-.038-18.671-.054" style="color:#000;fill:#f59e0b;stroke-linecap:round;stroke-linejoin:round;-inkscape-stroke:none;paint-order:markers fill stroke" transform="translate(338.62 168.308)"/>
  <path d="m-271.486-130.34-14.444.065c-3.972.017-7.718.04-10.556.064s-4.67.04-5.135.066l-1.207.069a.8.8 0 0 0-.625.357l-2.381 3.6c-.651.985-1.29 1.928-1.791 2.648-.25.36-.467.665-.63.889-.165.224-.327.408-.27.352-.399.398-.357.412-.684.482s-1.107.097-2.664.115l-2.787.031a.803.803 0 0 0-.793.803v21.014a.803.803 0 0 0 .803.803h4.392l.623.634c.929.948 3.634 3.92 5.041 5.54l.944 1.087a.8.8 0 0 0 .6.276l3.195.029c1.774.016 10.165.04 18.677.055l15.477.025a.8.8 0 0 0 .642-.322l2.245-3c1.25-1.672 2.016-2.664 2.533-3.246s.722-.72 1.013-.852c.258-.116.176-.114.7-.142.523-.029 1.527-.032 3.492-.032 2.092 0 3.209.012 3.789.069.58.056.495.05.754.254.225.177.317.33.408 1.23.026.252.053.484.076.662.012.09.02.163.031.229.005.032.011.06.02.101.004.02.008.042.021.084.007.021.015.047.036.092.01.023.046.09.047.09l.125.156.138.11.094.05s.08.032.105.04c.05.014.072.017.092.02.04.008.063.01.084.013l.121.01q.13.007.326.015c.265.01.62.017 1.006.023l1.39.024a.8.8 0 0 0 .546-.201l1.183-1.047 1.184-1.045a.8.8 0 0 0 .27-.602v-21.49a.8.8 0 0 0-.249-.58l-1.005-.963c-.552-.527-.87-.87-1.395-1.086-.524-.216-1.002-.214-1.85-.264-.397-.023-.696-.049-.982-.044s-.64.028-.965.306-.405.65-.44.93-.035.563-.05.937c-.027.69-.077 1.08-.135 1.258-.057.179-.078.204-.299.389-.137.116-.11.129-.656.182s-1.543.065-3.287.06c-1.747-.005-2.71-.028-3.186-.096-.476-.067-.355-.03-.546-.248-.134-.152-.188-.237-.254-.64-.067-.404-.098-1.088-.098-2.172v-1.889a.803.803 0 0 0-.766-.803l-1.449-.068a74 74 0 0 0-2.879-.074h-1.094l-2.962-2.523-3.186-2.717a.8.8 0 0 0-.523-.192m-.291 1.608 2.959 2.521 3.185 2.715a.8.8 0 0 0 .52.191l1.39.002c.743.001 2.025.035 2.803.073l.688.03v1.126c0 1.11.021 1.842.119 2.433s.318 1.082.63 1.438c.299.34.835.68 1.528.78.693.098 1.654.105 3.408.11 1.752.006 2.751 0 3.445-.068.695-.067 1.208-.273 1.538-.55.33-.279.64-.66.79-1.126s.183-.96.211-1.687c.012-.302.021-.47.032-.623.168.004.371.013.709.033.856.05 1.19.087 1.33.145s.339.229.898.763l.758.727v20.785l-.912.807-.95.84-1.077-.02a51 51 0 0 1-.725-.018c-.01-.083-.018-.143-.027-.234-.107-1.051-.392-1.84-1.014-2.33-.336-.265-.846-.517-1.59-.59s-1.85-.076-3.945-.076c-1.965 0-2.956 0-3.578.033-.622.034-1 .159-1.276.283-.49.222-.962.584-1.552 1.25s-1.362 1.67-2.618 3.35l-2.002 2.678-15.072-.026c-8.51-.014-16.924-.038-18.666-.055l-2.836-.025-.705-.814c-1.437-1.655-4.1-4.581-5.107-5.61l-.86-.875a.8.8 0 0 0-.572-.242h-3.928v-19.416l1.994-.023c1.557-.019 2.33-.013 2.979-.15.648-.139 1.087-.52 1.484-.917.171-.17.251-.298.428-.539.177-.24.4-.554.656-.922.512-.734 1.155-1.685 1.813-2.68l2.158-3.261.805-.045c.199-.011 2.223-.04 5.058-.064s6.58-.047 10.551-.065z" style="color:#000;fill:#f59e0b;stroke-linecap:round;stroke-linejoin:round;-inkscape-stroke:none;paint-order:markers fill stroke" transform="translate(338.62 168.308)"/>
  <path d="M-286.963-117.502h-7.407v4.002h7.003v5.265h-7.003v4.16h7.407v5.265h-13.638v-23.957h13.638zm17.586 0h-7.407v4.002h7.003v5.265h-7.003v4.16h7.407v5.265h-13.637v-23.957h13.637z" style="color:#000;-inkscape-font-specification:&quot;Futura Bold&quot;;fill:#0d9488;stroke-linecap:round;stroke-linejoin:round;-inkscape-stroke:none" transform="translate(338.62 168.308)"/>
  <path d="M-300.6-123.336a.57.57 0 0 0-.568.568v23.957a.57.57 0 0 0 .568.569h13.637a.57.57 0 0 0 .567-.569v-5.265a.57.57 0 0 0-.567-.567h-6.84v-3.025h6.436a.57.57 0 0 0 .568-.566v-5.266a.57.57 0 0 0-.568-.568h-6.436v-2.866h6.84a.57.57 0 0 0 .567-.568v-5.266a.57.57 0 0 0-.567-.568zm17.586 0a.57.57 0 0 0-.568.568v23.957a.57.57 0 0 0 .568.569h13.637a.57.57 0 0 0 .566-.569v-5.265a.57.57 0 0 0-.566-.567h-6.84v-3.025h6.436a.57.57 0 0 0 .568-.566v-5.266a.57.57 0 0 0-.568-.568h-6.436v-2.866h6.84a.57.57 0 0 0 .566-.568v-5.266a.57.57 0 0 0-.566-.568zm-17.02 1.137h12.503v4.129h-6.838a.57.57 0 0 0-.568.568v4.002a.57.57 0 0 0 .568.566h6.433v4.131h-6.433a.57.57 0 0 0-.568.569v4.158a.57.57 0 0 0 .568.568h6.838v4.131h-12.502zm17.587 0h12.502v4.129h-6.838a.57.57 0 0 0-.569.568v4.002a.57.57 0 0 0 .569.566h6.435v4.131h-6.435a.57.57 0 0 0-.569.569v4.158a.57.57 0 0 0 .569.568h6.838v4.131h-12.502z" style="color:#000;-inkscape-font-specification:&quot;Futura Bold&quot;;fill:#0d9488;stroke-linecap:round;stroke-linejoin:round;-inkscape-stroke:none" transform="translate(338.62 168.308)"/>
</svg>
